<?xml version="1.0" encoding="utf-8"?>
<!-- Generator: Adobe Illustrator 26.1.0, SVG Export Plug-In . SVG Version: 6.00 Build 0)  -->
<svg version="1.1" id="Layer_1" xmlns="http://www.w3.org/2000/svg" xmlns:xlink="http://www.w3.org/1999/xlink" x="0px" y="0px"
	 viewBox="0 0 489 390" style="enable-background:new 0 0 489 390;" xml:space="preserve">
<style type="text/css">
	.st0{fill:#FF6600;}
	.st1{fill:none;stroke:#000000;stroke-width:3.5153;stroke-linecap:round;}
	.st2{fill:none;stroke:#000000;stroke-width:3.6451;stroke-linecap:round;}
	.st3{fill:none;stroke:#000000;stroke-width:3.6311;stroke-linecap:round;}
	.st4{fill:none;stroke:#000000;stroke-width:3.6206;stroke-linecap:round;}
	.st5{fill:none;stroke:#000000;stroke-width:3.6915;stroke-linecap:round;}
	.st6{fill:none;stroke:#000000;stroke-width:3.5786;stroke-linecap:round;}
	.st7{fill:none;stroke:#000000;stroke-width:3.6736;stroke-linecap:round;}
	.st8{fill:none;stroke:#000000;stroke-width:3.5497;stroke-linecap:round;}
	.st9{fill:none;stroke:#000000;stroke-width:3.6957;stroke-linecap:round;}
	.st10{fill:none;stroke:#000000;stroke-width:3.7114;stroke-linecap:round;}
	.st11{fill:none;stroke:#000000;stroke-width:3.7189;stroke-linecap:round;}
	.st12{fill:none;stroke:#000000;stroke-width:3.718;stroke-linecap:round;}
	.st13{fill:none;stroke:#000000;stroke-width:3.7085;stroke-linecap:round;}
	.st14{fill:none;stroke:#000000;stroke-width:3.668;stroke-linecap:round;}
	.st15{fill:none;stroke:#000000;stroke-width:3.6399;stroke-linecap:round;}
	.st16{fill:none;stroke:#000000;stroke-width:3.6096;stroke-linecap:round;}
	.st17{fill:none;stroke:#000000;stroke-width:3.5233;stroke-linecap:round;}
	.st18{fill:none;stroke:#000000;stroke-width:3.4738;stroke-linecap:round;}
	.st19{fill:none;stroke:#000000;stroke-width:3.4956;stroke-linecap:round;}
	.st20{fill:none;stroke:#000000;stroke-width:3.6016;stroke-linecap:round;}
	.st21{fill:none;stroke:#000000;stroke-width:3.4727;stroke-linecap:round;}
	.st22{fill:none;stroke:#000000;stroke-width:3.5738;stroke-linecap:round;}
	.st23{fill:none;stroke:#000000;stroke-width:3.4996;stroke-linecap:round;}
	.st24{fill:none;stroke:#000000;stroke-width:3.4381;stroke-linecap:round;}
	.st25{fill:none;stroke:#000000;stroke-width:3.4711;stroke-linecap:round;}
	.st26{fill:none;stroke:#000000;stroke-width:3.4526;stroke-linecap:round;}
	.st27{fill:none;stroke:#000000;stroke-width:3.5037;stroke-linecap:round;}
	.st28{fill:none;stroke:#000000;stroke-width:3.5223;stroke-linecap:round;}
	.st29{fill:none;stroke:#000000;stroke-width:3.5432;stroke-linecap:round;}
	.st30{fill:none;stroke:#000000;stroke-width:3.5651;stroke-linecap:round;}
	.st31{fill:none;stroke:#000000;stroke-width:3.4854;stroke-linecap:round;}
	.st32{fill:none;stroke:#000000;stroke-width:3.4758;stroke-linecap:round;}
	.st33{fill:none;stroke:#000000;stroke-width:3.4305;stroke-linecap:round;}
	.st34{fill:none;stroke:#000000;stroke-width:3.4308;stroke-linecap:round;}
	.st35{fill:none;stroke:#000000;stroke-width:3.473;stroke-linecap:round;}
</style>
<g id="blender_frame_1">
	<g id="blender_object_GPencil">
		<g id="Svg_Fills">
			<polygon class="st0" points="231,68.2 235.6,67.6 239.9,65.9 243.6,63.2 246.4,59.6 248.1,55.5 248.7,51 248.6,30.2 247.9,25.1 
				245.9,20.3 242.8,16.1 238.8,12.9 234,10.9 229,10.1 221,10 215.4,10 208.9,10.1 201.9,10.4 194.7,10.8 187.7,11.2 181.2,11.8 
				175.6,12.4 171.6,12.9 166,13.7 159.7,14.9 152.8,16.4 145.8,18.2 139.1,20.2 132.9,22.2 127.6,24.2 123.8,25.7 118.6,28 
				112.7,30.8 106.5,34.2 100.2,37.7 94.2,41.4 88.7,45 84.1,48.4 80.9,50.8 76.4,54.4 71.5,58.8 66.4,63.6 61.3,68.7 56.4,73.9 
				52.1,78.8 48.5,83.3 46.1,86.5 42.8,91.2 39.2,96.6 35.5,102.7 32,109 28.7,115.3 25.9,121.2 23.6,126.4 22.1,130.2 20.2,135.5 
				18.2,141.7 16.3,148.5 14.5,155.5 13.1,162.4 11.9,168.8 11.1,174.4 10.7,178.5 10.3,184.1 10,190.6 10,197.6 10.2,204.8 
				10.6,211.8 11.2,218.2 12,223.8 12.6,227.8 13.7,233.3 15.2,239.6 17.1,246.3 19.2,253.2 21.4,259.8 23.7,265.8 25.9,270.9 
				27.6,274.5 30.1,279.6 33.2,285.2 36.7,291.1 40.5,297.1 44.4,302.8 48.2,308 51.6,312.4 54.2,315.4 57.9,319.5 62.3,324.1 
				67.3,328.9 72.5,333.7 77.7,338.1 82.7,342.1 87.1,345.4 90.4,347.6 95,350.6 100.4,353.9 106.4,357.2 112.6,360.4 118.8,363.3 
				124.6,365.9 129.7,367.8 133.3,369.2 138.6,370.9 144.6,372.6 151.2,374.3 158,375.8 164.6,377 170.8,378 176.3,378.6 
				180.1,378.9 185.6,379.3 191.8,379.7 198.6,379.9 205.5,380.1 212.3,380.1 218.5,380.1 223.9,379.9 231.7,379.6 236.5,378.8 
				241.1,376.7 245,373.6 247.9,369.7 249.8,365.1 250.4,360.3 250.3,340.7 249.7,336.4 247.9,332.5 245.1,329.2 241.5,326.7 
				237.3,325.2 232.8,324.8 228.9,325 226.6,325 224,325 221.1,324.9 218.2,324.8 215.6,324.7 213.3,324.5 200.8,323.4 197.2,323 
				193.2,322.3 188.9,321.5 184.4,320.6 180.1,319.5 176.2,318.4 172.8,317.3 167.3,315.3 163.9,314 160.2,312.4 156.1,310.5 
				152.1,308.5 148.2,306.3 144.6,304.3 141.6,302.3 137,299.2 134.1,297.1 130.8,294.6 127.4,291.7 124,288.6 120.8,285.6 
				117.9,282.6 115.4,280 112,276 109.8,273.2 107.3,269.9 104.7,266.2 102.2,262.4 99.9,258.5 97.9,254.9 96.3,251.7 94.2,247.3 
				92.7,243.9 91.2,240.1 89.8,235.8 88.4,231.4 87.2,227 86.3,223 85.6,219.4 84.8,214.8 84.3,211.2 84,207 83.7,202.5 83.6,197.9 
				83.7,193.3 83.9,189.1 84.2,185.5 84.8,180.8 85.3,177.2 86.1,173.1 87.1,168.6 88.3,164.1 89.6,159.8 90.9,155.8 92.3,152.4 
				94.2,147.8 95.7,144.5 97.6,140.7 99.8,136.7 102.1,132.7 104.6,128.9 107,125.4 109.2,122.4 112.5,118.3 114.8,115.5 
				117.7,112.3 120.8,109.1 124.2,105.8 127.6,102.7 130.8,100 133.7,97.8 138.3,94.4 141.3,92.3 144.9,90 148.8,87.7 152.9,85.4 
				156.9,83.3 160.7,81.5 164.1,80.1 169.7,77.9 173.2,76.6 177.2,75.3 181.5,74.1 186,73 190.5,72 194.6,71.2 198.2,70.7 219,68.1 
							"/>
			<polygon class="st0" points="257.2,360 257.9,364.8 259.8,369.2 262.8,372.9 266.6,375.7 271.2,377.3 276,377.8 290,377.2 
				294.4,376.9 299.5,376.5 304.9,376 310.4,375.4 315.4,374.7 319.8,374 336,371.2 340.2,370.3 345.1,369.1 350.4,367.6 
				355.5,365.9 360.3,364.2 364.3,362.5 379.2,355.7 383.1,353.8 387.6,351.3 392.2,348.6 396.8,345.7 401,342.8 404.4,340.1 
				417.2,329.8 420.5,327 424.2,323.5 428,319.7 431.7,315.7 435,311.9 437.7,308.5 447.6,295.3 450.1,291.7 452.8,287.5 
				455.6,282.8 458.2,278 460.4,273.5 462.2,269.5 468.5,254.3 470,250.3 471.6,245.4 473.2,240.2 474.5,235 475.6,230 476.3,225.7 
				478.7,209.4 479.2,205.1 479.5,200 479.7,194.6 479.7,189.2 479.5,184.1 479.1,179.7 477.3,163.4 476.7,159 475.8,154 
				474.6,148.7 473.2,143.4 471.8,138.6 470.4,134.4 464.5,119 462.8,115 460.6,110.4 458.1,105.5 455.4,100.8 452.8,96.4 
				450.3,92.8 440.6,79.4 437.9,75.9 434.7,71.9 431,67.9 427.1,64 423.4,60.4 420.1,57.6 415.2,53.6 410.9,50.3 405.9,46.6 
				400.3,42.9 394.4,39.2 388.4,35.6 382.5,32.3 376.9,29.4 372,27.1 366.2,24.5 362,22.8 357.1,21.1 351.8,19.4 346.4,18 
				341.4,16.8 337,16 320.2,13.5 315.7,12.9 310.5,12.3 304.9,11.8 299.2,11.4 293.9,11.1 289.4,11 274.9,10.8 269.9,11.4 
				265.2,13.3 261.2,16.4 258.2,20.4 256.3,25.2 255.6,30.3 255.2,51.1 255.8,55.5 257.6,59.7 260.4,63.3 264.1,66.1 268.4,67.8 
				273,68.4 284.8,68.5 304,71.1 308.4,71.8 313.5,72.9 318.9,74.2 324.3,75.8 329.2,77.4 333.4,78.9 336.8,80.3 340.9,82.2 
				345.5,84.5 350.4,87.1 355.1,90 359.5,92.8 363.1,95.4 365.7,97.4 369.2,100.1 373,103.6 377,107.4 380.8,111.3 384.3,115.2 
				387.1,118.6 388.8,120.9 391.4,124.4 394.3,128.7 397.1,133.4 399.8,138.2 402.1,142.8 403.9,146.8 408.4,158.4 428.5,195.3 
				407.7,232.5 403,244 401.1,248 398.7,252.6 396,257.4 393.2,262 390.3,266.3 387.7,269.8 385.9,272.1 383.1,275.5 379.7,279.3 
				375.8,283.2 371.9,287 368,290.4 364.6,293.2 362,295.2 358.5,297.8 354.2,300.6 349.5,303.5 344.7,306.2 340.2,308.5 
				336.2,310.4 332.9,311.8 328.8,313.4 323.9,315.1 318.7,316.7 313.4,318.1 308.4,319.3 304,320.1 285.3,323.1 273.8,323.5 
				269.3,324.2 265.2,326 261.6,328.7 258.9,332.2 257.1,336.2 256.6,340.4 			"/>
			<polygon class="st0" points="428.5,195.3 408.4,158.4 274.6,159.8 269.6,160.5 265,162.5 261.1,165.6 258.1,169.6 256.2,174.3 
				255.6,179.2 255.7,197.7 			"/>
			<polygon class="st0" points="407.7,232.5 428.5,195.3 255.7,197.7 255.8,216.2 256.4,221.1 258.4,225.7 261.4,229.5 265.3,232.5 
				269.9,234.3 274.8,234.8 			"/>
		</g>
		<g id="Svg_Lines">
			<polyline class="st1" points="250.4,360.3 249.8,365.1 247.9,369.7 245,373.6 241.1,376.7 236.6,378.8 231.7,379.6 			"/>
			<polyline class="st2" points="229,10.1 234,10.9 238.8,12.9 242.8,16.1 245.9,20.3 247.9,25.1 248.6,30.2 			"/>
			<polyline class="st3" points="219,68.1 198.2,70.7 194.6,71.2 190.5,72 186,73 181.5,74.1 177.2,75.3 173.2,76.6 169.7,77.9 
				164.1,80.1 160.7,81.5 156.9,83.3 152.9,85.4 148.8,87.7 144.9,90 141.3,92.3 138.3,94.4 133.7,97.8 130.8,100 127.6,102.7 
				124.2,105.8 120.8,109.1 117.7,112.3 114.8,115.5 112.5,118.3 109.2,122.4 107,125.4 104.6,128.9 102.1,132.7 99.8,136.7 
				97.6,140.7 95.7,144.5 94.2,147.8 92.3,152.4 90.9,155.8 89.6,159.8 88.3,164.1 87.1,168.6 86.1,173.1 85.3,177.2 84.8,180.8 
				84.2,185.5 83.9,189.1 83.7,193.3 83.6,197.9 83.7,202.5 84,207 84.3,211.2 84.8,214.8 85.6,219.4 86.3,223 87.2,227 88.4,231.4 
				89.8,235.8 91.2,240.1 92.7,243.9 94.2,247.3 96.3,251.7 97.9,254.9 99.9,258.5 102.2,262.4 104.7,266.2 107.3,269.9 
				109.8,273.2 112,276 115.4,280 117.9,282.6 120.8,285.6 124,288.7 127.4,291.7 130.8,294.6 134.1,297.1 137,299.2 141.6,302.3 
				144.6,304.3 148.2,306.3 152.1,308.5 156.1,310.5 160.2,312.4 163.9,314 167.3,315.3 172.8,317.3 176.2,318.4 180.1,319.5 
				184.4,320.6 188.9,321.5 193.2,322.3 197.2,323 200.8,323.4 213.3,324.5 215.6,324.7 218.2,324.8 221.1,324.9 224,325 226.6,325 
				228.9,325 232.8,324.8 237.3,325.2 241.5,326.7 245.1,329.2 247.9,332.5 249.7,336.4 250.3,340.7 			"/>
			<polyline class="st4" points="248.7,51 248.1,55.5 246.4,59.6 243.6,63.2 239.9,65.9 235.6,67.6 231,68.2 			"/>
			<line class="st3" x1="219" y1="68.1" x2="231" y2="68.2"/>
			<line class="st4" x1="248.7" y1="51" x2="248.6" y2="30.2"/>
			<line class="st1" x1="250.4" y1="360.3" x2="250.3" y2="340.7"/>
			<polyline class="st5" points="12,223.8 11.2,218.2 10.6,211.8 10.2,204.8 10,197.6 10,190.6 10.3,184.1 10.7,178.5 			"/>
			<polyline class="st6" points="129.7,367.8 124.6,365.9 118.8,363.3 112.6,360.4 106.4,357.2 100.4,353.9 95,350.6 90.4,347.6 			
				"/>
			<polyline class="st7" points="175.6,12.4 181.2,11.8 187.7,11.2 194.7,10.8 201.9,10.4 208.9,10.1 215.4,10 221,10 			"/>
			<polyline class="st8" points="176.3,378.6 170.8,378 164.6,377 158,375.8 151.2,374.3 144.6,372.6 138.6,370.9 133.3,369.2 			
				"/>
			<polyline class="st9" points="127.6,24.2 132.9,22.2 139.1,20.2 145.8,18.2 152.8,16.4 159.7,14.9 166,13.7 171.6,12.9 			"/>
			<polyline class="st10" points="84.1,48.4 88.7,45 94.2,41.4 100.2,37.7 106.5,34.2 112.7,30.8 118.6,28 123.8,25.7 			"/>
			<polyline class="st11" points="48.5,83.3 52.1,78.8 56.4,73.9 61.3,68.7 66.4,63.6 71.5,58.8 76.4,54.4 80.9,50.8 			"/>
			<polyline class="st12" points="23.6,126.4 25.9,121.2 28.7,115.3 32,109 35.5,102.7 39.2,96.6 42.8,91.2 46.1,86.5 			"/>
			<polyline class="st13" points="11.1,174.4 11.9,168.8 13.1,162.4 14.5,155.5 16.3,148.5 18.2,141.7 20.2,135.5 22.1,130.2 			"/>
			<polyline class="st14" points="25.9,270.9 23.7,265.8 21.4,259.8 19.2,253.2 17.1,246.3 15.2,239.6 13.7,233.3 12.6,227.8 			"/>
			<polyline class="st15" points="51.6,312.4 48.2,308 44.4,302.8 40.5,297.1 36.7,291.1 33.2,285.2 30.1,279.6 27.6,274.5 			"/>
			<polyline class="st16" points="87.1,345.4 82.7,342.1 77.7,338.1 72.5,333.7 67.3,328.9 62.3,324.1 57.9,319.5 54.2,315.4 			"/>
			<polyline class="st17" points="223.9,379.9 218.5,380.1 212.3,380.1 205.5,380.1 198.6,379.9 191.8,379.7 185.6,379.3 
				180.1,378.9 			"/>
			<line class="st2" x1="229" y1="10.1" x2="221" y2="10"/>
			<line class="st7" x1="175.6" y1="12.4" x2="171.6" y2="12.9"/>
			<line class="st9" x1="127.6" y1="24.2" x2="123.8" y2="25.7"/>
			<line class="st10" x1="84.1" y1="48.4" x2="80.9" y2="50.8"/>
			<line class="st11" x1="48.5" y1="83.3" x2="46.1" y2="86.5"/>
			<line class="st12" x1="23.6" y1="126.4" x2="22.1" y2="130.2"/>
			<line class="st13" x1="11.1" y1="174.4" x2="10.7" y2="178.5"/>
			<line class="st5" x1="12" y1="223.8" x2="12.6" y2="227.8"/>
			<line class="st14" x1="25.9" y1="270.9" x2="27.6" y2="274.5"/>
			<line class="st15" x1="51.6" y1="312.4" x2="54.2" y2="315.4"/>
			<line class="st16" x1="87.1" y1="345.4" x2="90.4" y2="347.6"/>
			<line class="st6" x1="129.7" y1="367.8" x2="133.3" y2="369.2"/>
			<line class="st8" x1="176.3" y1="378.6" x2="180.1" y2="378.9"/>
			<line class="st17" x1="223.9" y1="379.9" x2="231.7" y2="379.6"/>
			<line class="st18" x1="407.7" y1="232.5" x2="403" y2="244"/>
			<line class="st18" x1="408.4" y1="158.4" x2="274.6" y2="159.8"/>
			<polyline class="st19" points="276,377.8 271.2,377.3 266.6,375.7 262.8,372.9 259.8,369.2 257.9,364.8 257.2,360 256.6,340.4 
				257.1,336.2 258.9,332.2 261.6,328.7 265.2,326 269.3,324.2 273.8,323.5 			"/>
			<polyline class="st20" points="273,68.4 268.4,67.8 264.1,66.1 260.4,63.3 257.6,59.7 255.8,55.5 255.2,51.1 255.6,30.3 
				256.3,25.2 258.2,20.4 261.2,16.4 265.2,13.3 269.9,11.4 274.9,10.8 289.4,11 293.9,11.1 299.2,11.4 304.9,11.8 310.5,12.3 
				315.7,12.9 320.2,13.5 337,16 341.4,16.8 346.5,18 351.8,19.4 357.1,21.1 362,22.8 366.2,24.5 372,27.1 376.9,29.4 382.5,32.3 
				388.4,35.6 394.4,39.2 400.3,42.9 405.9,46.6 410.9,50.3 415.2,53.6 420.1,57.6 423.4,60.4 427.1,64 431,67.9 434.7,71.9 
				437.9,75.9 440.6,79.4 450.3,92.8 452.8,96.4 455.4,100.8 458.1,105.5 460.6,110.4 462.8,115 464.5,119 470.4,134.4 471.8,138.6 
				473.2,143.4 474.6,148.7 475.8,154 476.7,159 477.3,163.4 479.2,179.7 479.5,184.1 479.7,189.2 479.7,194.6 479.5,200 
				479.2,205.1 478.7,209.4 476.3,225.7 475.6,230 474.5,235 473.2,240.2 471.6,245.5 470.1,250.3 468.5,254.3 			"/>
			<polyline class="st21" points="407.7,232.5 274.8,234.8 269.9,234.3 265.3,232.5 261.4,229.6 258.4,225.7 256.4,221.1 
				255.8,216.2 255.7,197.7 			"/>
			<polyline class="st22" points="255.6,179.2 256.2,174.3 258.1,169.6 261.1,165.6 265,162.5 269.6,160.5 274.6,159.8 			"/>
			<polyline class="st20" points="273,68.4 284.8,68.5 304,71.1 			"/>
			<polyline class="st23" points="304,320.1 285.3,323.1 273.8,323.5 			"/>
			<line class="st22" x1="255.6" y1="179.2" x2="255.7" y2="197.7"/>
			<polyline class="st24" points="404.4,340.1 401,342.8 396.8,345.7 392.2,348.6 387.6,351.3 383.1,353.8 379.2,355.7 			"/>
			<polyline class="st25" points="387.7,269.9 390.3,266.3 393.2,262 396,257.4 398.7,252.6 401.1,248 403,244 			"/>
			<polyline class="st26" points="364.3,362.5 360.3,364.2 355.5,365.9 350.4,367.6 345.2,369.1 340.2,370.3 336,371.2 			"/>
			<polyline class="st27" points="403.9,146.8 402.1,142.8 399.8,138.2 397.1,133.4 394.3,128.7 391.4,124.4 388.9,120.9 			"/>
			<polyline class="st23" points="304,320.1 308.4,319.3 313.4,318.1 318.7,316.7 323.9,315.1 328.8,313.4 332.9,311.8 			"/>
			<polyline class="st28" points="387.1,118.6 384.3,115.2 380.8,111.3 377,107.4 373,103.6 369.2,100.1 365.7,97.4 			"/>
			<polyline class="st29" points="363.1,95.4 359.5,92.8 355.1,90 350.4,87.1 345.5,84.5 340.9,82.2 336.8,80.3 			"/>
			<polyline class="st30" points="333.4,78.9 329.3,77.4 324.3,75.8 318.9,74.2 313.5,72.9 308.4,71.8 304,71.1 			"/>
			<polyline class="st31" points="336.2,310.4 340.2,308.5 344.7,306.2 349.5,303.5 354.2,300.6 358.5,297.8 362,295.2 			"/>
			<polyline class="st32" points="364.6,293.2 368,290.4 371.9,287 375.8,283.2 379.7,279.3 383.1,275.5 385.9,272.1 			"/>
			<polyline class="st33" points="462.2,269.5 460.4,273.5 458.2,278 455.6,282.8 452.8,287.5 450.1,291.7 447.6,295.3 			"/>
			<polyline class="st34" points="437.7,308.5 435,311.9 431.7,315.7 428,319.7 424.2,323.5 420.5,327 417.2,329.8 			"/>
			<polyline class="st35" points="319.8,374 315.4,374.7 310.4,375.4 304.9,376 299.5,376.5 294.4,376.9 290,377.2 			"/>
			<line class="st19" x1="276" y1="377.8" x2="290" y2="377.2"/>
			<line class="st35" x1="319.8" y1="374" x2="336" y2="371.2"/>
			<line class="st26" x1="364.3" y1="362.5" x2="379.2" y2="355.7"/>
			<line class="st24" x1="404.4" y1="340.1" x2="417.2" y2="329.8"/>
			<line class="st34" x1="437.7" y1="308.5" x2="447.6" y2="295.3"/>
			<line class="st33" x1="462.2" y1="269.5" x2="468.5" y2="254.3"/>
			<line class="st30" x1="333.4" y1="78.9" x2="336.8" y2="80.3"/>
			<line class="st29" x1="363.1" y1="95.4" x2="365.7" y2="97.4"/>
			<line class="st28" x1="387.1" y1="118.6" x2="388.9" y2="120.9"/>
			<line class="st27" x1="403.9" y1="146.8" x2="408.4" y2="158.4"/>
			<line class="st25" x1="387.7" y1="269.9" x2="385.9" y2="272.1"/>
			<line class="st32" x1="364.6" y1="293.2" x2="362" y2="295.2"/>
			<line class="st31" x1="336.2" y1="310.4" x2="332.9" y2="311.8"/>
		</g>
	</g>
</g>
</svg>
